<svg xmlns="http://www.w3.org/2000/svg" enable-background="new 0 0 2000 2000" viewBox="0 0 2000 2000" id="Thermometer"><path d="M1271.3369,1190.5762V323.6348c0-94.584-76.9482-171.5332-171.5322-171.5332h-27.5918
		c-94.584,0-171.5332,76.9492-171.5332,171.5332v866.9414c-104.9629,64.3555-169.4355,178.6729-169.4355,302.5576
		c0,47.8799,9.3848,94.3428,27.8926,138.0996c17.8682,42.249,43.4453,80.1855,76.0146,112.7568
		c32.5713,32.5713,70.5088,58.1475,112.7568,76.0166c43.7578,18.5078,90.2207,27.8916,138.1006,27.8916
		s94.3428-9.3838,138.0996-27.8916c42.249-17.8691,80.1846-43.4453,112.7568-76.0166
		c32.5713-32.5713,58.1475-70.5078,76.0166-112.7568c18.5078-43.7568,27.8916-90.2197,27.8916-138.0996
		C1440.7734,1369.249,1376.3018,1254.9326,1271.3369,1190.5762z M1086.0088,1787.8984
		c-162.5342,0-294.7646-132.2305-294.7646-294.7646c0-107.9531,58.9355-207.1719,153.8047-258.9365
		c9.6357-5.2578,15.6309-15.3584,15.6309-26.335V323.6348c0-61.499,50.0332-111.5332,111.5332-111.5332h27.5918
		c61.5,0,111.5322,50.0342,111.5322,111.5332v884.2275c0,10.9766,5.9961,21.0771,15.6318,26.335
		c94.8701,51.7646,153.8047,150.9834,153.8047,258.9365C1380.7734,1655.668,1248.5439,1787.8984,1086.0088,1787.8984z" fill="#d85b53" class="color000000 svgShape"></path><path d="M1111.0586 1314.7988V318.2314c0-16.5684-13.4307-30-30-30-16.5684 0-30 13.4316-30 30v996.5674c-87.4805 14.3721-154.4385 90.499-154.4385 181.9844 0 101.6992 82.7393 184.4375 184.4385 184.4375s184.4375-82.7383 184.4375-184.4375C1265.4961 1405.2979 1198.5391 1329.1709 1111.0586 1314.7988zM1081.0586 1621.2207c-68.6152 0-124.4385-55.8223-124.4385-124.4375 0-68.6143 55.8232-124.4375 124.4385-124.4375s124.4375 55.8232 124.4375 124.4375C1205.4961 1565.3984 1149.6738 1621.2207 1081.0586 1621.2207zM679.8076 437.9775H787.373c16.5684 0 30-13.4316 30-30s-13.4316-30-30-30H679.8076c-16.5684 0-30 13.4316-30 30S663.2393 437.9775 679.8076 437.9775zM589.2266 562.5273H787.373c16.5684 0 30-13.4316 30-30s-13.4316-30-30-30H589.2266c-16.5684 0-30 13.4316-30 30S572.6582 562.5273 589.2266 562.5273zM787.373 627.0762H679.8076c-16.5684 0-30 13.4316-30 30s13.4316 30 30 30H787.373c16.5684 0 30-13.4316 30-30S803.9414 627.0762 787.373 627.0762zM589.2266 811.626H787.373c16.5684 0 30-13.4316 30-30s-13.4316-30-30-30H589.2266c-16.5684 0-30 13.4316-30 30S572.6582 811.626 589.2266 811.626zM787.373 876.1758H679.8076c-16.5684 0-30 13.4316-30 30s13.4316 30 30 30H787.373c16.5684 0 30-13.4316 30-30S803.9414 876.1758 787.373 876.1758zM817.373 1030.7246c0-16.5684-13.4316-30-30-30H589.2266c-16.5684 0-30 13.4316-30 30s13.4316 30 30 30H787.373C803.9414 1060.7246 817.373 1047.293 817.373 1030.7246z" fill="#d85b53" class="color000000 svgShape"></path></svg>